<?xml version="1.0" encoding="UTF-8"?>
<svg id="Layer_1" data-name="Layer 1" xmlns="http://www.w3.org/2000/svg" version="1.1" viewBox="0 0 100 100">
  <defs>
    <style>
      .cls-1 {
        fill: #b3b3b3;
        stroke-width: 0px;
      }
    </style>
  </defs>
  <g id="gYVZEK.tif">
    <path class="cls-1" d="M19.8,13.5c6.4,0,11.3,4.6,11.4,11.1,0,2.7,1,4.5,3.6,5.9,8.5,4.5,15.6,10.8,22.9,17,9.8,8.4,19.4,17,30.3,24,2.1,1.3,4.2,2.6,6.4,3.8,1.2.7,1.2,1.2.1,2-3.5,2.7-5.9,3-9.7.7-3.6-2.2-7.1-4.6-10.6-6.9-3.4-2.3-6.9-3.1-11-1.9-5.1,1.5-10.5,2.4-15.9,2.5-1.4,0-2.3.7-3,1.8-1.6,2.3-2.6,4.8-3.5,7.4-.4,1.1.1,1.4,1,1.8,1.4.5,2.8,1,4.1,1.6.7.3,1.1.8.8,1.6-.4.8-1.1.8-1.7.5-4.8-2.6-9.6-2.1-14.4-.4-.8.3-1.5.2-1.8-.7-.3-.9.4-1.4,1.1-1.6,1.8-.6,3.6-1.3,5.5-1.3,1.6,0,2.5-.8,2.9-2.3.3-1.2.8-2.4,1.1-3.6.7-3-.1-4.5-3-5.4-8.2-2.6-13.9-8.1-18.1-15.4-2.1-3.8-3.2-7.9-3.1-12.3.1-3.3.4-6.6-.2-9.8-1-4.9-3.1-7.1-8-8-.4,0-.8-.2-1.2-.2-1.4-.3-1.3-1-.4-1.7.7-.7,1.5-1.5,2.4-1.8,1.7-.6,2.5-1.7,3.4-3.2,1.9-3.2,4.7-5,8.6-5Z"/>
  </g>
</svg>