<?xml version="1.0" encoding="UTF-8"?>
<svg id="Layer_1" data-name="Layer 1" xmlns="http://www.w3.org/2000/svg" version="1.1" viewBox="0 0 100 100">
  <defs>
    <style>
      .cls-1 {
        fill: #b3b3b3;
        stroke-width: 0px;
      }
    </style>
  </defs>
  <g id="_24Fbye.tif" data-name="24Fbye.tif">
    <path class="cls-1" d="M69.9,91c-3.6,0-7.3,0-10.9,0-2.2,0-3.5-2-2.7-3.9.4-.8,1-1.4,1.9-1.5.7-.1,1.5-.2,2.2-.2,6.2,0,12.3,0,18.5-.1,1.2,0,2.4-.1,3.7-.3,1-.1,2-.4,2.7-1.2.6-.7,1.2-1.4.7-2.5-.5-1.1-1.4-1.5-2.5-1.3-1.1.2-2.2.4-3.3.7-4,.8-8.1,1.2-12.2.9-.7,0-1.4,0-2.1,0-13.3,0-26.6,0-39.9,0-1.9,0-2.9-.8-3-2.6-.1-1.6.9-3.2,2.6-3.2,1.5,0,1.6-.9,1.6-1.9,0-3-.9-5.8-2.3-8.4-.5-1-1.1-2-1.7-2.9-4.7-6.6-5.7-14-4.5-21.9,0-.1,0-.3,0-.4.6-3.2.2-3.7-3.1-4-.9,0-1.7-.3-2.6-.3-4.5-.3-6.5-6.9-3.5-9.4.9-.8,1.4-1.9,1.9-3,1-2.3,2.3-4.5,4.3-6.2.4-.3.8-.7,1.3-.9,1.8-.4,2-1.6,1.8-3.1-.1-1,0-2.1,0-3.1,0-1,.4-1.3,1.4-.9,2.2,1,3.9,2.7,5.2,4.7.8,1.2,1.8,2.2,3.1,3,4.9,2.8,7.3,8.4,5.6,14-1.1,3.5,1.5,5.9,4.6,5.8,12.6-.5,21.1,5.7,26.6,16.6,3,6,4.2,12.3,3.9,19,0,1-.1,1.9-.4,2.9-.3,1.1.2,1.3,1.1,1.3,3.8,0,7.6-.4,11.3-1.4,3.4-.9,6.5-.3,8.8,2.7,3,4.1,2,8.7-2.3,11.3-2.3,1.4-4.9,1.9-7.5,1.9-3.5,0-6.9,0-10.4,0h0Z"/>
  </g>
</svg>