<?xml version="1.0" encoding="UTF-8"?>
<svg id="Layer_1" data-name="Layer 1" xmlns="http://www.w3.org/2000/svg" version="1.1" viewBox="0 0 100 100">
  <defs>
    <style>
      .cls-1 {
        fill: #b3b3b3;
        stroke-width: 0px;
      }
    </style>
  </defs>
  <g id="NedqQ8.tif">
    <g>
      <path class="cls-1" d="M90.6,56.4c-.6-2.4-1.2-4.8-1.9-7.5-.7,2.6-1.5,4.8-2.5,6.9-1.1,2.4-2.4,4.7-4.1,6.8-.5.6-.6,1.1-.3,1.9.9,2.2,1.1,4.5,1,6.9,0,2.9,0,5.9-.1,8.8,0,.8,0,1.6-.6,2.2-.4.4-.2.8,0,1.2.3.7,0,.9-.7.9-1,0-2-.1-3-.2-.7,0-.6-.5-.5-.9,1.5-3.5,1.1-7.2,1.4-10.9,0-.9,0-1-.9-1.8-.3,1.9-.6,3.7-.8,5.5-.2,1.4-.5,2.8-.7,4.1-.1.6-.3,1.1-.7,1.6-.4.4-.5.8-.3,1.3.3.7.1,1.1-.7,1.1-1.1,0-2.2,0-3.3,0-.9,0-1.1-.3-.7-1.1,2-3.4,2.3-7.2,2.7-11,0-.7-.2-1.1-.8-1.3-1.1-.5-2.2-1.1-3-1.9-.7-.7-1.1-1.4-1.1-2.4,0-.6-.2-.8-.8-.6-8.3,2.8-16.5,1.7-24.7-.3-1.5-.4-3-.6-4.4-1-.6-.1-1.2,0-1.4.7-.4,1.5-1.4,2.8-2.3,4-.5.7-.8,1.5-.9,2.4-.2,2.5-.4,5.1-.7,7.6,0,.6-.2,1.2-.5,1.8-.3.6-.4,1.2-.1,1.9.3.8,0,1-.8,1.1-3.5.2-3.4.2-2.4-3.1.7-2.5.6-5.1,1-7.6.2-1.6.4-3.2-.7-4.6-.9,1.5-1.2,3.1-1.5,4.7-.3,2.1-.6,4.2-1,6.3,0,.3,0,.6-.3.8-.8.8-.9,1.7-.7,2.8.1.5,0,.8-.7.8-1,0-2,0-3,0-.6,0-.8-.3-.5-.8,2.2-3.7,2.4-7.9,3.2-11.9.1-.5.2-1,0-1.5-.7-1.9-1-3.9-1.2-5.9,0-.6-.3-1-.8-1.3-5.7-3.4-7.8-8.8-8.6-15.1-.6-5.6-.5-11.1-.2-16.7,0-.3,0-.7.3-.8.4,0,.5.3.7.5.3.4.6.8,1,1.1,1.1.8,1.9,1.7,2.2,3,.4,1.6,1.6,2.1,3.1,2.2,1.6,0,3.1-.2,4-1.7.8-1.5,1.7-2.8,3.2-3.8.8-.5,1.1-1.5,1.5-2.5.1-.3.3-.7.4-1.2,1.4,2.4,3.7,1.5,5.5,1.6,5.9.3,11.7-.7,17.4-1.9,6.6-1.4,13.3-2.5,20-2.7,7.7-.2,16.4,5.7,17.4,14.7.3,2.9.2,5.7,0,8.6-.1,2.4-.6,4.8-.9,7.2,0,.3,0,.7-.5.9Z"/>
      <path class="cls-1" d="M13.6,20.3c1.6.7,2.9,0,3.3-2.1.1-.6.7-.9,1.2-1.2,3.2-1.8,6.5-1.7,9.7-.4,1.2.5,2,1.3,2.2,2.6.1.9.6,1.1,1.5.9,2.1-.4,4.1-.3,6,.7,1.3.7,1.3,1.1.1,2-1.8,1.4-3.9,1.5-6,1.2-.9-.1-1.2.1-1.2,1,0,.9-.3,1.8-.5,2.6-.3,1.5-.9,2.8-2.4,3.6-1,.6-1.5,1.6-1.8,2.6-.4,1.2-1.2,1.6-2.4,1.6-1.2,0-2.1-.5-2.4-1.8-.3-1.2-1-2.1-2-2.8-1.7-1.2-2.5-2.9-2.6-4.9,0-.4-.1-.8-.2-1.2,0-.9-.6-1-1.3-.9-1,.2-2,.4-3,.5-1.3,0-2.4-.4-3.5-1.1-.9-.7-.9-1.1,0-1.8,1.4-1,3-1.3,5-1.3ZM26.4,20.7c1.2,0,1.9-.4,2.3-1.1.2-.4.3-.7,0-1-.4-.3-.8-.3-1.1,0-.6.8-1.2.6-1.7,0-.5-.6-1-.6-1.6,0-.7.6-1.5.7-2.1,0-.3-.4-.7-.4-1.1,0-.8.7-1.5.8-2.2-.2-.2-.3-.6-.3-.9,0-.3.3-.2.6,0,.8.5.8,1.2,1.4,2.1,1.2,1-.2,1.9,0,2.9.2,1.3.2,2.7-.4,3.7.3Z"/>
    </g>
  </g>
</svg>