<?xml version="1.0" encoding="UTF-8"?>
<svg id="Layer_1" data-name="Layer 1" xmlns="http://www.w3.org/2000/svg" version="1.1" viewBox="0 0 100 100">
  <defs>
    <style>
      .cls-1 {
        stroke-width: 0px;
      }

      .cls-1, .cls-2 {
        fill: #b3b3b3;
      }

      .cls-2 {
        font-family: Avenir-Medium, Avenir;
        font-size: 42px;
        font-weight: 500;
      }
    </style>
  </defs>
  <g>
    <path class="cls-1" d="M51.4,20.5h-7.8c-.9,0-1.7.8-1.7,1.7v7.7c0,.9.8,1.7,1.7,1.7h7.8c.9,0,1.7-.8,1.7-1.7v-7.7c0-.9-.8-1.7-1.7-1.7ZM49.7,28.2h-4.4v-4.3h4.4v4.3Z"/>
    <path class="cls-1" d="M38.9,20.5h-7.8c-.9,0-1.7.8-1.7,1.7v7.7c0,.9.8,1.7,1.7,1.7h7.8c.9,0,1.7-.8,1.7-1.7v-7.7c0-.9-.8-1.7-1.7-1.7ZM37.2,28.2h-4.4v-4.3h4.4v4.3Z"/>
    <path class="cls-1" d="M26.3,20.5h-7.8c-.9,0-1.7.8-1.7,1.7v7.7c0,.9.8,1.7,1.7,1.7h7.8c.9,0,1.7-.8,1.7-1.7v-7.7c0-.9-.8-1.7-1.7-1.7ZM24.6,28.2h-4.4v-4.3h4.4v4.3Z"/>
    <path class="cls-1" d="M51.4,34.6h-7.8c-.9,0-1.7.8-1.7,1.7v7.7c0,.9.8,1.7,1.7,1.7h7.8c.9,0,1.7-.8,1.7-1.7v-7.7c0-.9-.8-1.7-1.7-1.7ZM49.7,42.2h-4.4v-4.3h4.4v4.3Z"/>
    <path class="cls-1" d="M38.9,34.6h-7.8c-.9,0-1.7.8-1.7,1.7v7.7c0,.9.8,1.7,1.7,1.7h7.8c.9,0,1.7-.8,1.7-1.7v-7.7c0-.9-.8-1.7-1.7-1.7ZM37.2,42.2h-4.4v-4.3h4.4v4.3Z"/>
    <path class="cls-1" d="M26.3,34.6h-7.8c-.9,0-1.7.8-1.7,1.7v7.7c0,.9.8,1.7,1.7,1.7h7.8c.9,0,1.7-.8,1.7-1.7v-7.7c0-.9-.8-1.7-1.7-1.7ZM24.6,42.2h-4.4v-4.3h4.4v4.3Z"/>
    <path class="cls-1" d="M51.4,48.6h-7.8c-.9,0-1.7.8-1.7,1.7v7.7c0,.9.8,1.7,1.7,1.7h7.8c.9,0,1.7-.8,1.7-1.7v-7.7c0-.9-.8-1.7-1.7-1.7ZM49.7,56.3h-4.4v-4.3h4.4v4.3Z"/>
    <path class="cls-1" d="M38.9,48.6h-7.8c-.9,0-1.7.8-1.7,1.7v7.7c0,.9.8,1.7,1.7,1.7h7.8c.9,0,1.7-.8,1.7-1.7v-7.7c0-.9-.8-1.7-1.7-1.7ZM37.2,56.3h-4.4v-4.3h4.4v4.3Z"/>
    <path class="cls-1" d="M26.3,48.6h-7.8c-.9,0-1.7.8-1.7,1.7v7.7c0,.9.8,1.7,1.7,1.7h7.8c.9,0,1.7-.8,1.7-1.7v-7.7c0-.9-.8-1.7-1.7-1.7ZM24.6,56.3h-4.4v-4.3h4.4v4.3Z"/>
    <path class="cls-1" d="M51.4,62.6h-7.8c-.9,0-1.7.8-1.7,1.7v7.7c0,.9.8,1.7,1.7,1.7h7.8c.9,0,1.7-.8,1.7-1.7v-7.7c0-.9-.8-1.7-1.7-1.7ZM49.7,70.3h-4.4v-4.3h4.4v4.3Z"/>
    <path class="cls-1" d="M38.9,62.6h-7.8c-.9,0-1.7.8-1.7,1.7v7.7c0,.9.8,1.7,1.7,1.7h7.8c.9,0,1.7-.8,1.7-1.7v-7.7c0-.9-.8-1.7-1.7-1.7ZM37.2,70.3h-4.4v-4.3h4.4v4.3Z"/>
    <path class="cls-1" d="M26.3,62.6h-7.8c-.9,0-1.7.8-1.7,1.7v7.7c0,.9.8,1.7,1.7,1.7h7.8c.9,0,1.7-.8,1.7-1.7v-7.7c0-.9-.8-1.7-1.7-1.7ZM24.6,70.3h-4.4v-4.3h4.4v4.3Z"/>
    <path class="cls-1" d="M51.4,76.7h-7.8c-.9,0-1.7.8-1.7,1.7v7.7c0,.9.8,1.7,1.7,1.7h7.8c.9,0,1.7-.8,1.7-1.7v-7.7c0-.9-.8-1.7-1.7-1.7ZM49.7,84.4h-4.4v-4.3h4.4v4.3Z"/>
    <path class="cls-1" d="M38.9,76.7h-7.8c-.9,0-1.7.8-1.7,1.7v7.7c0,.9.8,1.7,1.7,1.7h7.8c.9,0,1.7-.8,1.7-1.7v-7.7c0-.9-.8-1.7-1.7-1.7ZM37.2,84.4h-4.4v-4.3h4.4v4.3Z"/>
    <path class="cls-1" d="M26.3,76.7h-7.8c-.9,0-1.7.8-1.7,1.7v7.7c0,.9.8,1.7,1.7,1.7h7.8c.9,0,1.7-.8,1.7-1.7v-7.7c0-.9-.8-1.7-1.7-1.7ZM24.6,84.4h-4.4v-4.3h4.4v4.3Z"/>
    <path class="cls-1" d="M96.4,91.6h-2.9v-48.7c0-.7-.4-1.4-1.1-1.6l-32.7-12v-12.5h2c.9,0,1.7-.8,1.7-1.7V6.7c0-.9-.8-1.7-1.7-1.7H8.3c-.9,0-1.7.8-1.7,1.7v8.3c0,.9.8,1.7,1.7,1.7h2v74.9H3.6c-.9,0-1.7.8-1.7,1.7s.8,1.7,1.7,1.7h92.7c.9,0,1.7-.8,1.7-1.7s-.8-1.7-1.7-1.7ZM10,8.4h50v4.9H10v-4.9ZM13.7,91.6V16.7h42.5v74.9H13.7ZM59.6,91.6v-58.7l28.9,10.7h-23.1c-.9,0-1.7.8-1.7,1.7s.8,1.7,1.7,1.7h24.5v5h-24.5c-.9,0-1.7.8-1.7,1.7s.8,1.7,1.7,1.7h24.5v5h-24.5c-.9,0-1.7.8-1.7,1.7s.8,1.7,1.7,1.7h24.5v5h-24.5c-.9,0-1.7.8-1.7,1.7s.8,1.7,1.7,1.7h24.5v5h-24.5c-.9,0-1.7.8-1.7,1.7s.8,1.7,1.7,1.7h24.5v3.7h-24.5c-.9,0-1.7.8-1.7,1.7s.8,1.7,1.7,1.7h24.5v3.8h-30.4Z"/>
  </g>
  <text class="cls-2" transform="translate(65.9 31.6)"><tspan x="0" y="0">+</tspan></text>
</svg>