<?xml version="1.0" encoding="UTF-8"?>
<svg id="Layer_1" data-name="Layer 1" xmlns="http://www.w3.org/2000/svg" version="1.1" viewBox="0 0 100 100">
  <defs>
    <style>
      .cls-1 {
        fill: #b3b3b3;
        stroke-width: 0px;
      }
    </style>
  </defs>
  <path class="cls-1" d="M50.9,5.4c-.6-.4-1.3-.4-1.9,0L12,31.7c-.7.5-.9,1.5-.4,2.3.5.7,1.5.9,2.3.4L50,8.7l36.1,25.7c.3.2.6.3.9.3.5,0,1-.2,1.3-.7.5-.7.4-1.8-.4-2.3L50.9,5.4Z"/>
  <path class="cls-1" d="M29.8,48.1h8.6c.9,0,1.6-.7,1.6-1.6v-9.1c0-.9-.7-1.6-1.6-1.6h-8.6c-.9,0-1.6.7-1.6,1.6v9.1c0,.9.7,1.6,1.6,1.6ZM31.4,38.9h5.3v5.9h-5.3v-5.9Z"/>
  <path class="cls-1" d="M45.7,48.1h8.6c.9,0,1.6-.7,1.6-1.6v-9.1c0-.9-.7-1.6-1.6-1.6h-8.6c-.9,0-1.6.7-1.6,1.6v9.1c0,.9.7,1.6,1.6,1.6ZM47.3,38.9h5.3v5.9h-5.3v-5.9Z"/>
  <path class="cls-1" d="M29.8,63.9h8.6c.9,0,1.6-.7,1.6-1.6v-9.1c0-.9-.7-1.6-1.6-1.6h-8.6c-.9,0-1.6.7-1.6,1.6v9.1c0,.9.7,1.6,1.6,1.6ZM31.4,54.8h5.3v5.9h-5.3v-5.9Z"/>
  <path class="cls-1" d="M45.7,63.9h8.6c.9,0,1.6-.7,1.6-1.6v-9.1c0-.9-.7-1.6-1.6-1.6h-8.6c-.9,0-1.6.7-1.6,1.6v9.1c0,.9.7,1.6,1.6,1.6ZM47.3,54.8h5.3v5.9h-5.3v-5.9Z"/>
  <path class="cls-1" d="M61.6,48.1h8.6c.9,0,1.6-.7,1.6-1.6v-9.1c0-.9-.7-1.6-1.6-1.6h-8.6c-.9,0-1.6.7-1.6,1.6v9.1c0,.9.7,1.6,1.6,1.6ZM63.2,38.9h5.3v5.9h-5.3v-5.9Z"/>
  <path class="cls-1" d="M61.6,63.9h8.6c.9,0,1.6-.7,1.6-1.6v-9.1c0-.9-.7-1.6-1.6-1.6h-8.6c-.9,0-1.6.7-1.6,1.6v9.1c0,.9.7,1.6,1.6,1.6ZM63.2,54.8h5.3v5.9h-5.3v-5.9Z"/>
  <path class="cls-1" d="M4,94.9h92.1c.9,0,1.6-.7,1.6-1.6s-.7-1.6-1.6-1.6h-1.5c0-4-3.3-7.3-7.3-7.5-.7-3.3-3.5-5.8-7-6.1v-45c0-.5-.3-1-.7-1.3l-28.6-20.4c-.6-.4-1.3-.4-1.9,0l-28.6,20.4c-.4.3-.7.8-.7,1.3v45c-3.4.3-6.2,2.8-7,6.1-4,.2-7.2,3.5-7.3,7.5h-1.5c-.9,0-1.6.7-1.6,1.6s.7,1.6,1.6,1.6ZM42.6,91.7v-17.5h14.9v17.5h-14.9ZM84.1,85.8h0c0,.6.2,1,.6,1.3.4.3.9.5,1.3.4,2.7-.5,5.1,1.6,5.2,4.2h-11v-10.3c2.2.3,3.9,2.2,3.9,4.4ZM23,33.9l27-19.2,27,19.2v57.8h-16.3v-19.1c0-.9-.7-1.6-1.6-1.6h-18.1c-.9,0-1.6.7-1.6,1.6v19.1h-16.3v-57.8ZM14,87.5c.5,0,1,0,1.3-.4.4-.3.6-.8.6-1.3h0c0-2.3,1.7-4.2,3.9-4.5v10.3h-11c0-2.6,2.5-4.7,5.2-4.2Z"/>
  <path class="cls-1" d="M54.3,78.1c-.9,0-1.6.7-1.6,1.6v1.8c0,.9.7,1.6,1.6,1.6s1.6-.7,1.6-1.6v-1.8c0-.9-.7-1.6-1.6-1.6Z"/>
</svg>