<?xml version="1.0" encoding="UTF-8"?>
<svg id="Layer_2" data-name="Layer 2" xmlns="http://www.w3.org/2000/svg" version="1.1" viewBox="0 0 250 80">
  <defs>
    <style>
      .cls-1 {
        fill: #b3b3b3;
        stroke-width: 0px;
      }

      .cls-2, .cls-3 {
        fill: none;
        stroke: #b3b3b3;
        stroke-miterlimit: 10;
      }

      .cls-3 {
        stroke-width: 2px;
      }
    </style>
  </defs>
  <path class="cls-1" d="M112.5,76.1h-45.5v-11.7h8.1c5.8,0,10.5-4.7,10.5-10.5s-.5-3.6-1.3-5.1c2.1-1.8,3.4-4.4,3.4-7.2,0-5.2-4.2-9.5-9.5-9.5s-1.1,0-1.6.1c-2.8-5.2-8.4-8.5-14.4-8.5-8.9,0-16.2,7.1-16.2,15.8s1.3,7.1,3.6,9.9c-1,1.5-1.5,3.3-1.5,5.2,0,5.4,4.4,9.8,9.8,9.8h7.7v11.7H25.6v-12.7h8.8c4.7,0,8.5-3.8,8.5-8.5s-3.8-8.5-8.5-8.5c.5-1.1.7-2.2.7-3.4,0-4.7-3.8-8.5-8.5-8.5s-8.5,3.8-8.5,8.5,0,.7,0,1.1c-.5,0-1-.1-1.6-.1-5.3,0-9.7,4.3-9.7,9.7s4.3,9.7,9.7,9.7h7.6v12.7H-21.2v-17.4h6.6c2.1,0,4.1-1,5.7-2.7,1.8-2,2.8-4.8,2.5-7.5-.2-1.9-.6-3.4-1.4-4.6,2.2-1.6,3.5-4.1,3.5-6.9s-1-4.7-2.7-6.3c2.5-2,4-5,4-8.2,0-5.8-4.7-10.5-10.5-10.5s-1.8.1-2.7.3c-1.8-3.9-5.6-6.3-9.9-6.3s-10.9,4.9-10.9,10.9.7,4.3,1.8,6c-4.5,1.2-7.8,5.4-7.8,10.1s3.3,9,7.9,10.2c-2,1.6-3.3,4.1-3.3,6.7,0,4.7,3.8,8.5,8.5,8.5h7.2v17.4h-49.7v-7.2h20.7c3.5,0,6.4-2.9,6.4-6.4s-.5-2.8-1.4-3.9c1.6-1.8,2.5-4.2,2.5-6.6,0-4.7-3.4-8.9-7.9-9.9.3-1,.5-2,.5-3.1,0-5.6-4.5-10.1-10.1-10.1s-2,.1-2.9.4c-1.2-4.3-5.2-7.4-9.8-7.4s-10.1,4.5-10.1,10.1,0,1,.1,1.5c-.8-.2-1.6-.3-2.4-.3-5.6,0-10.1,4.5-10.1,10.1s1.5,6.2,4.1,8.1c-3.9.9-6.8,4.4-6.8,8.6s4,8.8,8.8,8.8h17.1v7.2h-52.6v-14h12.6c4.7,0,8.5-3.8,8.5-8.5s-2-6.4-5-7.8c1.7-1.9,2.7-4.3,2.7-6.9,0-5-3.5-9.1-8.3-10,.5-1.4.8-2.8.8-4.3,0-6.6-5.4-12-12-12s-12,5.4-12,12,.3,2.9.8,4.3c-4.7.8-8.3,5-8.3,10s1,5,2.7,6.9c-3,1.4-5,4.4-5,7.8s3.8,8.5,8.5,8.5h12.6v14h-48.5v-8.9h16.5c3.1,0,5.7-2.6,5.7-5.7s-2.6-5.7-5.7-5.7-.3,0-.4,0c.7-1.1,1.1-2.5,1.1-3.9,0-4-3.3-7.3-7.3-7.3s-.5,0-.7,0c-.3-6.1-5.4-11-11.6-11s-11.7,5.2-11.7,11.7.4,3.5,1.2,5.1c-3.2,1.4-5.2,4.5-5.2,8s3.9,8.7,8.7,8.7h8v8.9h-21.4c-.4,0-.7.3-.7.7s.3.7.7.7h458.4c.4,0,.7-.3.7-.7s-.3-.7-.7-.7h-32.2v-17h8.8c5.3,0,9.6-4.3,9.6-9.6s-4.3-9.6-9.6-9.6-2.4.2-3.5.6c0-.5.1-.9.1-1.4,0-4.4-3.6-8-8-8s-8,3.6-8,8,.2,2.2.7,3.2c-2.6.5-4.8,2.1-6,4.4-1.4-1.9-3.5-3.4-6.1-3.9.8-1.7,1.3-3.6,1.3-5.6,0-7-5.7-12.7-12.7-12.7s-12.7,5.7-12.7,12.7.4,3.8,1.3,5.6c-4.4.9-7.7,4.7-7.7,8.9s4.4,9.2,9.9,9.2h8.5v15.2h-80.6M57.9,62.9c-4.6,0-8.4-3.8-8.4-8.4s.5-3.3,1.4-4.7v-.2c.3-.3.3-.6,0-.9-2.3-2.6-3.6-5.9-3.6-9.4,0-7.9,6.6-14.4,14.8-14.4s11,3.2,13.4,8.2c.1.3.5.5.8.4h.1c.6-.2,1.1-.2,1.7-.2,4.4,0,8,3.6,8,8s-1.2,4.9-3.2,6.4h-.1c-.3.3-.3.7-.1,1,.9,1.5,1.4,3.1,1.4,4.9,0,5-4.1,9-9,9h-8.1v-16.2l6.6-7.2c.3-.3.2-.7,0-1-.3-.3-.7-.2-1,0l-5.6,6.1v-8.5c0-.4-.3-.7-.7-.7s-.7.3-.7.7v14.4l-8-8.9c-.3-.3-.7-.3-1,0-.3.3-.3.7,0,1l9,10.1v10.2h-7.7ZM16.7,62c-4.6,0-8.3-3.7-8.3-8.3s3.7-8.3,8.3-8.3,1.4,0,2,.2h.3c.2.1.5,0,.7,0,.2-.2.3-.4.2-.7-.2-.6-.2-1.2-.2-1.8,0-3.9,3.2-7.1,7.1-7.1s7.1,3.2,7.1,7.1-.4,2.6-1,3.7h0c-.1.3-.1.6,0,.8.2.2.4.3.7.3.4,0,.7,0,1.1,0,3.9,0,7.1,3.2,7.1,7.1s-3.2,7.1-7.1,7.1h-8.8v-7.8l4.3-3.4c.3-.2.4-.7.1-1-.2-.3-.7-.4-1-.1l-3.4,2.7v-4c0-.4-.3-.7-.7-.7s-.7.3-.7.7v8.8l-5.5-5.2c-.3-.3-.7-.3-1,0-.3.3-.3.7,0,1l6.5,6.1v2.9h-7.6ZM-29.9,57.3c-3.9,0-7.1-3.2-7.1-7.1s1.6-5.2,4-6.4c.3-.1.4-.4.4-.7s-.2-.5-.4-.6h-.2c0,0-.1-.1-.2-.1-4.7-.4-8.2-4.3-8.2-9s3.3-8.3,7.7-9c.2,0,.4-.2.5-.4,0-.2,0-.5,0-.7v-.2c-1.5-1.7-2.2-3.8-2.2-6,0-5.2,4.3-9.5,9.5-9.5s7.4,2.4,8.9,6c.1.3.5.5.9.4h.1c.9-.3,1.8-.5,2.7-.5,5,0,9.1,4.1,9.1,9.1s-1.5,5.8-3.9,7.5h-.2c-.2.3-.3.5-.3.7,0,.2,0,.5.3.6,1.8,1.3,2.9,3.5,2.9,5.7s-1.2,4.6-3.1,5.9l-.3.2c-.2.1-.3.3-.3.5,0,.2,0,.4.1.6.8,1.1,1.3,2.5,1.5,4.5.2,2.3-.6,4.6-2.2,6.4-1.3,1.4-2.9,2.2-4.6,2.2h-6.6v-13.9l5.1-7.3c.2-.3.1-.8-.2-1-.3-.2-.8-.1-1,.2l-4,5.6v-16.7c0-.4-.3-.7-.7-.7s-.7.3-.7.7v9.9l-4.2-3.6c-.3-.3-.7-.2-1,0-.3.3-.2.7,0,1l5.2,4.4v21.3h-7.2ZM-90.8,67.5c-4.1,0-7.4-3.3-7.4-7.4s3.3-7.4,7.4-7.4.6-.2.7-.5c0-.3,0-.6-.3-.8h-.2c0-.2,0-.2,0-.2-3-1.5-4.8-4.5-4.8-7.8,0-4.8,3.9-8.7,8.7-8.7s2.1.2,3.1.6c.2,0,.5,0,.7-.1.2-.2.3-.5.2-.7v-.2c-.2-.7-.3-1.5-.3-2.2,0-4.8,3.9-8.7,8.7-8.7s7.7,2.9,8.5,6.9h0c0,.3.1.5.3.7.2.1.4.2.7,0,1-.4,2.1-.6,3.2-.6,4.8,0,8.7,3.9,8.7,8.7s-.2,2.2-.6,3.3c-.1.3,0,.6.2.8h.1c0,.2.2.2.3.2,4.2.6,7.4,4.3,7.4,8.6s-.9,4.4-2.4,6c-.1.1-.2.3-.2.5v.2c0,.2,0,.3.2.5.8.9,1.3,2.1,1.3,3.4,0,2.7-2.2,5-5,5h-20.7v-5.9l9.9-4.9c.3-.2.5-.6.3-.9-.2-.3-.6-.5-.9-.3l-9.2,4.6v-7.9l7.5-6.1c.3-.2.3-.7,0-1-.2-.3-.7-.3-1,0l-6.6,5.4v-11.1c0-.4-.3-.7-.7-.7s-.7.3-.7.7v11.1l-6.6-5.4c-.3-.2-.7-.2-1,0-.2.3-.2.7,0,1l7.5,6.1v7.9l-9.2-4.6c-.4-.2-.8,0-.9.3-.2.3,0,.8.3.9l9.9,4.9v5.9h-17.1ZM-140.4,60.7c-3.9,0-7.1-3.2-7.1-7.1s2-5.9,5-6.8h.1c.2-.1.4-.3.5-.6,0-.3,0-.5-.2-.7-1.9-1.7-3-4.1-3-6.6,0-4.5,3.5-8.3,8-8.7.2,0,.4-.1.6-.4.1-.2.1-.4,0-.7h0c-.6-1.5-1-3-1-4.6,0-5.8,4.7-10.6,10.6-10.6s10.6,4.7,10.6,10.6-.3,3-.9,4.4v.2c-.2.2-.2.5,0,.7.1.2.4.3.6.3h0c4.5.4,7.9,4.1,7.9,8.7s-1.1,4.8-2.9,6.5h-.2c-.2.3-.3.6-.2.8,0,.2.2.4.5.5,3,.9,5.1,3.7,5.1,6.8s-3.2,7.1-7.1,7.1h-12.6v-6.9l8.7-5.5c.3-.2.4-.6.2-1-.2-.3-.6-.4-1-.2l-7.9,5v-11l6.2-5.5c.3-.3.3-.7,0-1-.3-.3-.7-.3-1,0l-5.3,4.7v-10.3c0-.4-.3-.7-.7-.7s-.7.3-.7.7v10.3l-5.3-4.7c-.3-.3-.7-.2-1,0-.3.3-.2.7,0,1l6.2,5.5v11l-7.9-5c-.3-.2-.8-.1-1,.2-.2.3-.1.8.2,1l8.7,5.5v6.9h-12.6ZM-185.7,65.8c-4,0-7.3-3.3-7.3-7.3s1.9-5.8,4.8-6.9h.2c.2-.1.4-.3.4-.5,0-.2,0-.4,0-.6-.9-1.6-1.4-3.3-1.4-5.2,0-5.6,4.6-10.2,10.2-10.2s10.2,4.6,10.2,10.2,0,.2,0,.4h0c.2.4.5.5.8.5.4,0,.8-.1,1.2-.1,3.2,0,5.9,2.6,5.9,5.9s-.8,3.5-2.2,4.6l-.2.2c-.3.3-.3.7,0,.9.2.3.6.4.9.2.7-.4,1.5-.7,2.3-.7,2.4,0,4.3,1.9,4.3,4.3s-1.9,4.3-4.3,4.3h-16.5v-7.1l7.8-7.1c.3-.3.3-.7,0-1-.3-.3-.7-.3-1,0l-6.8,6.2v-7.2c0-.4-.3-.7-.7-.7s-.7.3-.7.7v9.7l-4.7-4c-.3-.3-.7-.2-1,0-.3.3-.2.7,0,1l5.6,4.8v4.5h-8ZM218.1,43.6h.3c.3,0,.5-.1.6-.4.1-.2.1-.5,0-.7v-.2c-.7-1-1-2.1-1-3.2,0-3.6,2.9-6.6,6.6-6.6s6.6,2.9,6.6,6.6-.1,1.5-.4,2.3v.2c-.2.3,0,.6.2.8.2.2.5.2.8,0,1.3-.8,2.7-1.2,4.2-1.2,4.5,0,8.2,3.7,8.2,8.2s-3.7,8.2-8.2,8.2h-8.8v-7.8l4.4-3.2c.3-.2.4-.7.2-1s-.7-.4-1-.2l-3.5,2.6v-4.7c0-.4-.3-.7-.7-.7s-.7.3-.7.7v7.9l-4.7-3.1c-.3-.2-.8-.1-1,.2-.2.3-.1.8.2,1l5.5,3.7v4.6h-6.9c-2.6,0-5-1.4-6.2-3.7.2-.7.3-1.5.3-2.3,0-1.2-.3-2.4-.8-3.5.9-2.6,3.3-4.4,5.9-4.6ZM184.6,59.4c-4.7,0-8.5-3.5-8.5-7.7s3.1-7.1,7.2-7.7c0,0,.1,0,.2,0h.2c.2-.2.3-.3.4-.5,0-.2,0-.4,0-.6-1-1.7-1.5-3.7-1.5-5.7,0-6.2,5.1-11.3,11.3-11.3s11.3,5.1,11.3,11.3-.5,4-1.6,5.7c-.1.2-.1.5,0,.7.1.2.3.4.6.4h.2c4.1.6,7.2,3.9,7.2,7.7s-3.8,7.7-8.5,7.7h-8.5v-10.4l4.9-3.4c.3-.2.4-.7.2-1-.2-.3-.7-.4-1-.2l-4,2.9v-8.9c0-.4-.3-.7-.7-.7s-.7.3-.7.7v15.4l-6.8-4.4c-.3-.2-.8-.1-1,.2-.2.3-.1.8.2,1l7.6,4.9v3.9h-8.5ZM194.5,60.9h8.5c3.9,0,7.4-2.1,9-5.2,1.6,2.2,4.1,3.5,6.8,3.5h6.9v17h-31.2v-15.2ZM113.9,76.1h27.1-27.1"/>
  <g>
    <path class="cls-1" d="M121.5,76.4,154.9,76.4v-25.7c0-.2-.1-.4-.3-.5l-15.8-12.2c-.4-.3-.9-.3-1.3,0l-15.8,12.2c-.2.1-.3.3-.3.5v25.7M142.7,76.4h-9v-11.4h9v11.4ZM153,76.4h-8.5v-12.1c0-.4-.4-.8-.9-.8h-10.9c-.5,0-.9.3-.9.8v12.1h-8.5v-25.3l14.8-11.5,14.8,11.5v25.3Z"/>
    <path class="cls-1" d="M143.6,53.1h-10.9c-.5,0-.9.3-.9.8v5.8c0,.4.4.8.9.8h10.9c.5,0,.9-.3.9-.8v-5.8c0-.4-.4-.8-.9-.8ZM142.7,58.9h-9v-4.3h9v4.3Z"/>
  </g>
  <path class="cls-1" d="M122.8,76.1v-13.8c0-.2-.1-.4-.3-.6l-9.7-6.8c-.2-.2-.6-.2-.8,0l-9.7,6.8c-.2.1-.3.3-.3.6v13.8h-21.8c-.4,0-.7.3-.7.7s.3.7.7.7h41.9M116.5,76.1h-8.2v-5.2c0-2.2,1.8-4.1,4.1-4.1s4.1,1.8,4.1,4.1v5.2ZM117.9,76.1v-5.2c0-3-2.5-5.5-5.5-5.5s-5.5,2.5-5.5,5.5v5.2h-3.5v-13.4l9-6.3,9,6.3v13.4h-3.5Z"/>
  <polyline class="cls-3" points="126.8 47 126.8 38.4 132.6 38.4 132.6 42.7"/>
  <circle class="cls-2" cx="159.3" cy="17.5" r="7"/>
</svg>