<?xml version="1.0" encoding="UTF-8"?>
<svg xmlns="http://www.w3.org/2000/svg" version="1.1" viewBox="0 0 100 100">
  <defs>
    <style>
      .cls-1 {
        fill: #b3b3b3;
        stroke-width: 0px;
      }

      .cls-2 {
        fill: none;
        stroke: #b3b3b3;
        stroke-linecap: round;
        stroke-linejoin: round;
        stroke-width: 3px;
      }
    </style>
  </defs>
  <g id="Layer_1" data-name="Layer 1">
    <path class="cls-1" d="M9.2,92.3c-.9,0-1.6.6-1.6,1.3s.7,1.3,1.6,1.3h82.7c.9,0,1.6-.6,1.6-1.3s-.7-1.3-1.6-1.3H15.3"/>
  </g>
  <g id="Layer_2" data-name="Layer 2">
    <g>
      <g>
        <circle class="cls-2" cx="78.2" cy="84.5" r="7.8" transform="translate(-22.7 29.1) rotate(-18.4)"/>
        <circle class="cls-2" cx="78.2" cy="84.5" r="3.6"/>
      </g>
      <g>
        <circle class="cls-2" cx="31.4" cy="84.5" r="7.8"/>
        <path class="cls-2" d="M31.4,88.1c-2,0-3.6-1.6-3.6-3.6s1.6-3.6,3.6-3.6,3.6,1.6,3.6,3.6-1.6,3.6-3.6,3.6Z"/>
      </g>
      <g>
        <line class="cls-2" x1="70.4" y1="84.5" x2="39.2" y2="84.5"/>
        <path class="cls-2" d="M23.5,84.5h-5.9c-.4,0-.8,0-1.2-.3l-9.4-4.6c-.9-.4-1.5-1.4-1.5-2.4v-39.3c0-1.5,1.2-2.6,2.6-2.6h33.8c.9,0,1.7-.4,2.2-1.2l3.4-5.2c.5-.7,1.3-1.2,2.2-1.2h29.9c8.7,0,15.8,7.1,15.8,15.8v4.3c0,3-2.4,5.5-5.5,5.5h-11.9l7.8,12.5,5.8,3.1c2.2,1.2,3.6,3.5,3.6,6v7.1c0,1.5-1.2,2.6-2.6,2.6h-6.8"/>
        <path class="cls-2" d="M80,56.1h-8.4c-2,0-3.3,2.1-2.4,3.9l2.9,5.7h13.9"/>
        <rect class="cls-2" x="14.1" y="50.3" width="26.1" height="11.9" rx="6" ry="6"/>
        <path class="cls-2" d="M59.6,84.5v-32c0-1.2-.9-2.1-2.1-2.1h-8.6c-1.2,0-2.1.9-2.1,2.1v32"/>
        <line class="cls-2" x1="59.6" y1="62.3" x2="46.7" y2="62.3"/>
        <line class="cls-2" x1="27.1" y1="62.3" x2="27.1" y2="50.3"/>
        <rect class="cls-2" x="67.2" y="35.4" width="15.3" height="7.5" rx="3.7" ry="3.7"/>
      </g>
    </g>
  </g>
</svg>