<?xml version="1.0" encoding="UTF-8"?>
<svg id="Layer_2" data-name="Layer 2" xmlns="http://www.w3.org/2000/svg" version="1.1" viewBox="0 0 250 80">
  <defs>
    <style>
      .cls-1 {
        stroke-width: 0px;
      }

      .cls-1, .cls-2 {
        fill: #b3b3b3;
      }

      .cls-2 {
        stroke: #b3b3b3;
        stroke-miterlimit: 10;
        stroke-width: 2px;
      }
    </style>
  </defs>
  <g>
    <path class="cls-1" d="M74.2,76.7h-21.7v-10.2c6.9-.3,10.6-3.3,10.6-8.7s-4.7-23.6-11.6-23.6-11.6,17.7-11.6,23.6,3.8,8.4,10.6,8.7v10.2h-31.1v-14.9c12.2-.3,14.8-6.5,14.8-11.8,0-7.8-6.5-32.5-15.8-32.5S3,42.2,3,50.1s2.6,11.5,14.8,11.8v14.9H3.9c-.5,0-.9.4-.9.9s.4.9.9.9h69.7c.4-.5.8-1,.8-1.5l-.2-.4ZM18.7,26.6c-.5,0-.9.4-.9.9v10l-3.2-3c-.4-.4-1-.3-1.3,0-.4.4-.3,1,0,1.3l4.5,4.2v19.8c-8.6-.2-13-3.5-13-9.9s6.8-30.6,13.9-30.6,13.9,22.3,13.9,30.6-4.4,9.7-13,9.9v-4.2l6.7-8.2c.3-.4.3-1-.1-1.3-.4-.3-1-.3-1.3.1l-5.2,6.4v-25.2c0-.5-.4-.9-.9-.9ZM51.7,40.8c-.5,0-.9.4-.9.9v6.6l-1.9-1.8c-.4-.4-1-.3-1.3,0-.4.4-.3,1,0,1.3l3.1,2.9v13.9c-5.8-.2-8.8-2.5-8.8-6.8s4.7-21.7,9.7-21.7,9.7,15.8,9.7,21.7-3,6.6-8.8,6.8v-2.7l4.7-5.8c.3-.4.3-1-.1-1.3-.4-.3-1-.3-1.3.1l-3.3,4v-17.3c0-.5-.4-.9-.9-.9Z"/>
    <path class="cls-1" d="M565.3,76.7h-6.7v-6.8c6.6-.3,7.6-4.2,7.6-6.5,0-4.3-3.5-17.2-8.6-17.2s-8.6,12.9-8.6,17.2,1,6.2,7.6,6.5v6.8h-25.2v-9.5c6.5-.3,10.1-3.2,10.1-8.3s-4.4-22.4-11-22.4-11,16.8-11,22.4,3.6,8,10.1,8.3v9.5h-17.8V29.9c0-.5-.4-.9-.9-.9h-4.6v-7.8c0-.5-.4-.9-.9-.9h-5.4V7.1c0-.5-.4-.9-.9-.9s-.9.4-.9.9v13.1h-5.4c-.5,0-.9.4-.9.9v7.8h-4.8v-7.8c0-.5-.4-.9-.9-.9h-5.4V7.1c0-.5-.4-.9-.9-.9s-.9.4-.9.9v13.1h-5.4c-.5,0-.9.4-.9.9v7.8h-4.6c-.5,0-.9.4-.9.9v46.9h-10.2V-2.9c0-.5-.4-.9-.9-.9h-40.3c-.5,0-.9.4-.9.9v26.1h-14.6c-.5,0-.9.4-.9.9v52.6h-13v-41.5c0-.5-.4-.9-.9-.9h-5.4v-10.2c0-.5-.4-.9-.9-.9h-5.5v-7.6c0-.1,0-.3-.1-.4l-10.4-19.9c-.3-.6-1.3-.6-1.7,0l-10.4,19.9c0,.1-.1.3-.1.4v7.6h-5.5c-.5,0-.9.4-.9.9v10.2h-5.4c-.5,0-.9.4-.9.9v41.5h-11.4V10.3c0-.3-.1-.5-.3-.7l-21.3-17.2v-10.1c0-.5-.4-.9-.9-.9s-.9.4-.9.9V-7.6l-21.3,17.2c-.2.2-.3.4-.3.7v66.4h-16.8v-9.5c6.5-.3,10.1-3.2,10.1-8.3s-4.4-22.4-11-22.4-11,16.8-11,22.4,3.6,8,10.1,8.3v9.5h-26.8v-9.5c6.5-.3,10.1-3.2,10.1-8.3s-4.4-22.4-11-22.4-11,16.8-11,22.4,3.6,8,10.1,8.3v9.5h-17.7v-31.7c0-.3-.1-.5-.3-.7l-15.8-15.1c-.4-.3-.9-.3-1.3,0l-15.8,15.1c-.2.2-.3.4-.3.7v31.7h-7.8v-15.8c0-.2,0-.5-.2-.6l-14.6-15.9c-.4-.4-1-.4-1.4,0l-14.6,15.9c-.2.2-.2.4-.2.6v15.8h-17.3v-10.2c6.9-.3,10.6-3.3,10.6-8.7s-4.7-23.6-11.6-23.6-11.6,17.7-11.6,23.6,3.8,8.4,10.6,8.7v10.2h-17.9v-21.3c0-.3-.2-.6-.4-.8l-15.5-9.5c-.3-.2-.7-.2-1,0l-15.5,9.5c-.3.2-.4.5-.4.8v21.3l.2.4s0,0,0,0c0,0,0,0,0,.1l.5,1c0,.1.2.3.3.4h490c.5,0,.9-.4.9-.9s-.4-.9-.9-.9ZM89,76.7h-7.8v-12.4h7.8v12.4ZM105.3,76.7h-14.4v-13.3c0-.5-.4-.9-.9-.9h-9.7c-.5,0-.9.4-.9.9v13.3h-3.2v-20.8l14.6-9,14.6,9v20.8ZM125.9,40.8c-.5,0-.9.4-.9.9v6.6l-1.9-1.8c-.4-.4-1-.3-1.3,0-.4.4-.3,1,0,1.3l3.1,2.9v13.9c-5.8-.2-8.8-2.5-8.8-6.8s4.7-21.7,9.7-21.7,9.7,15.8,9.7,21.7-3,6.6-8.8,6.8v-2.7l4.7-5.8c.3-.4.3-1-.1-1.3-.4-.3-1-.3-1.3.1l-3.3,4v-17.3c0-.5-.4-.9-.9-.9ZM164.5,76.7h-9.5v-14.5h9.5v14.5ZM173.4,76.7h-7v-15.4c0-.5-.4-.9-.9-.9h-11.4c-.5,0-.9.4-.9.9v15.4h-7v-15.5l13.7-14.9,13.7,14.9v15.5ZM204.2,76.7h-9v-14.1h9v14.1ZM214.5,76.7h-8.5v-15c0-.5-.4-.9-.9-.9h-10.9c-.5,0-.9.4-.9.9v15h-8.5v-31.3l14.8-14.2,14.8,14.2v31.3ZM235,42.7c-.5,0-.9.4-.9.9v6.1l-1.7-1.6c-.4-.4-1-.3-1.3,0-.4.4-.3,1,0,1.3l3,2.8v13c-5.5-.2-8.2-2.4-8.2-6.4s4.5-20.5,9.1-20.5,9.1,15.1,9.1,20.5-2.8,6.2-8.2,6.4v-2.5l4.5-5.5c.3-.4.3-1-.1-1.3-.4-.3-1-.3-1.3.1l-3,3.7v-16.3c0-.5-.4-.9-.9-.9ZM263.6,42.7c-.5,0-.9.4-.9.9v6.1l-1.7-1.6c-.4-.4-1-.3-1.3,0-.4.4-.3,1,0,1.3l3,2.8v13c-5.5-.2-8.2-2.4-8.2-6.4s4.5-20.5,9.1-20.5,9.1,15.1,9.1,20.5-2.8,6.2-8.2,6.4v-2.5l4.5-5.5c.3-.4.3-1-.1-1.3-.4-.3-1-.3-1.3.1l-3,3.7v-16.3c0-.5-.4-.9-.9-.9ZM303.9-6l20,16.2h-39.9l20-16.2ZM324.6,76.7h-41.4v-9h41.4v9ZM324.6,65.9h-41.4v-9.3h41.4v9.3ZM324.6,54.7h-41.4v-9.3h41.4v9.3ZM324.6,43.6h-41.4v-9.3h41.4v9.3ZM324.6,32.5h-41.4v-9.3h41.4v9.3ZM324.6,21.3h-41.4v-9.3h41.4v9.3ZM352.5,15.8l9.4-18.1,9.4,18.1v7.3h-18.9v-7.3ZM346.1,25h31.7v9.3h-31.7v-9.3ZM384.2,76.7h-9.3v-33.1c0-.5-.4-.9-.9-.9s-.9.4-.9.9v33.1h-10.2v-33.1c0-.5-.4-.9-.9-.9s-.9.4-.9.9v33.1h-10.2v-33.1c0-.5-.4-.9-.9-.9s-.9.4-.9.9v33.1h-9.3v-40.6h44.5v40.6ZM429.9,34.3h-18.7c-.5,0-.9.4-.9.9s.4.9.9.9h18.7v9.3h-18.7c-.5,0-.9.4-.9.9s.4.9.9.9h18.7v9.3h-18.7c-.5,0-.9.4-.9.9s.4.9.9.9h18.7v9.3h-18.7c-.5,0-.9.4-.9.9s.4.9.9.9h18.7v7.2h-29V25h29v9.3ZM454.8,9.7h-19.2c-.5,0-.9.4-.9.9s.4.9.9.9h19.2v9.8h-19.2c-.5,0-.9.4-.9.9s.4.9.9.9h19.2v9.8h-19.2c-.5,0-.9.4-.9.9s.4.9.9.9h19.2v9.8h-19.2c-.5,0-.9.4-.9.9s.4.9.9.9h19.2v9.8h-19.2c-.5,0-.9.4-.9.9s.4.9.9.9h19.2v9.8h-19.2c-.5,0-.9.4-.9.9s.4.9.9.9h19.2v6.9h-23.1V24.1c0-.5-.4-.9-.9-.9h-14.5V-2h38.4v11.7ZM493.7,22.1h10.9v6.8h-10.9v-6.8ZM474.3,22.1h10.9v6.8h-10.9v-6.8ZM488.5,76.7h-11.4v-4.9h11.4v4.9ZM488.5,70h-11.4v-8.4h11.4v8.4ZM488.5,59.7h-11.4v-8.4h11.4v8.4ZM488.5,49.4h-11.4v-8.2h11.4v8.2ZM501.7,76.7h-11.4v-4.9h11.4v4.9ZM501.7,70h-11.4v-8.4h11.4v8.4ZM501.7,59.7h-11.4v-8.4h11.4v8.4ZM501.7,49.4h-11.4v-8.2h11.4v8.2ZM510,76.7h-6.5v-36.5c0-.5-.4-.9-.9-.9h-26.5c-.5,0-.9.4-.9.9v36.5h-6.5V30.8h41.3v45.9ZM530.6,42.7c-.5,0-.9.4-.9.9v6.1l-1.7-1.6c-.4-.4-1-.3-1.3,0-.4.4-.3,1,0,1.3l3,2.8v13c-5.5-.2-8.2-2.4-8.2-6.4s4.5-20.5,9.1-20.5,9.1,15.1,9.1,20.5-2.8,6.2-8.2,6.4v-2.5l4.5-5.5c.3-.4.3-1-.1-1.3-.4-.3-1-.3-1.3.1l-3,3.7v-16.3c0-.5-.4-.9-.9-.9ZM557.7,50.9c-.5,0-.9.4-.9.9v4.1l-.9-.8c-.4-.4-1-.3-1.3,0-.4.4-.3,1,0,1.3l2.2,2v9.5c-5.8-.3-5.8-3.5-5.8-4.6,0-4.6,3.5-15.3,6.7-15.3s6.7,10.7,6.7,15.3,0,4.3-5.8,4.6v-1.6l3.3-4.1c.3-.4.3-1-.1-1.3-.4-.3-1-.3-1.3.1l-1.9,2.3v-11.7c0-.5-.4-.9-.9-.9Z"/>
    <path class="cls-1" d="M74.5,77.2c0,.3.3.7.5,1l-.5-1Z"/>
    <path class="cls-1" d="M75.2,78.6h.1c-.1-.1-.2-.3-.3-.4l.2.4Z"/>
    <path class="cls-1" d="M75,78.2c-.3-.3-.5-.7-.5-1h0c0,.4-.4.9-.8,1.4h1.6l-.2-.4Z"/>
    <path class="cls-1" d="M74.5,77.1s0,0,0,0h0s0,0,0,0Z"/>
    <path class="cls-1" d="M101.7,62.5h-5.8c-.5,0-.9.4-.9.9v7.1c0,.5.4.9.9.9h5.8c.5,0,.9-.4.9-.9v-7.1c0-.5-.4-.9-.9-.9ZM100.8,69.6h-4v-5.3h4v5.3Z"/>
    <path class="cls-1" d="M205.1,47.9h-10.9c-.5,0-.9.4-.9.9v7.2c0,.5.4.9.9.9h10.9c.5,0,.9-.4.9-.9v-7.2c0-.5-.4-.9-.9-.9ZM204.2,55.1h-9v-5.3h9v5.3Z"/>
    <path class="cls-1" d="M62.9,28.1h14.7c2.5,0,4.5-2,4.5-4.5s-1.8-4.3-4.1-4.5c.1-.5.2-.9.2-1.4,0-3.3-3.1-6-6.9-6s-6.9,2.7-6.9,6,0,.5,0,.8c-.5-.1-.9-.2-1.4-.2-2.7,0-4.9,2.2-4.9,4.9s2.2,4.9,4.9,4.9ZM62.9,19.4c.7,0,1.3.2,1.9.5h0c.2.2.5.3.7.1.2-.1.3-.4.2-.7-.2-.5-.3-1-.3-1.6,0-2.7,2.6-4.9,5.8-4.9s5.8,2.2,5.8,4.9-.1,1.2-.4,1.7c0,.2,0,.4,0,.5.1.2.3.3.5.2h.4c1.9,0,3.4,1.5,3.4,3.4s-1.5,3.4-3.4,3.4h-14.7c-2.1,0-3.8-1.7-3.8-3.8s1.7-3.8,3.8-3.8Z"/>
    <path class="cls-1" d="M141.2,27.9h20.2c.1,0,.2,0,.3,0,.2,0,.4,0,.6,0h25.3c2.4,0,4.5-2.2,4.5-4.7s-2.1-4.8-4.5-4.8-1.2.1-1.7.3c0-.2,0-.5,0-.7,0-2.5-2-4.5-4.5-4.5s-2.1.4-2.8,1c-.2-4-3.5-7.1-7.6-7.1s-5.7,1.8-6.9,4.5c-1-2.6-3.6-4.5-6.5-4.5s-6.3,2.5-6.9,5.8c-.7-.3-1.4-.4-2.1-.4-3.3,0-5.9,2.7-5.9,5.9s0,.5,0,.7c-.5-.2-1-.3-1.5-.3-2.4,0-4.4,2-4.4,4.4s2,4.4,4.4,4.4ZM171.1,8.5c3.6,0,6.4,2.9,6.4,6.4s0,.7,0,1c0,0,0,.2,0,.3,0,.2.2.4.5.4.2,0,.5,0,.6-.3.6-1.1,1.7-1.8,3-1.8,1.9,0,3.4,1.5,3.4,3.4s-.2,1.3-.6,1.9c-.1.2-.1.5,0,.7.2.2.5.2.7.1,0,0,.1,0,.2-.1.6-.7,1.5-1.1,2.5-1.1,1.8,0,3.4,1.7,3.4,3.7s-1.6,3.6-3.4,3.6h-25.3c-2.5,0-4.6-2.2-4.6-4.8s2.1-4.6,4.6-4.6,1.2.1,1.8.4c.2,0,.4,0,.5,0,.2-.1.3-.3.3-.5,0,0,0-.1,0-.2-.2-.6-.3-1.3-.3-2,0-3.6,2.9-6.4,6.4-6.4ZM141.2,20.2c.7,0,1.4.2,2,.7.2.2.5.2.7,0,.2-.2.3-.4.2-.7h0c-.2-.6-.2-1-.2-1.5,0-2.6,2.2-4.8,4.8-4.8s1.6.2,2.3.6c0,0,0,0,.1,0,.2,0,.3,0,.5,0,.1,0,.2-.3.2-.4.2-3.1,2.8-5.5,5.9-5.5s5.9,2.6,5.9,5.9,0,0,0,.1c0,.2,0,.3,0,.5,0,.5,0,.9.1,1.4-.4,0-.8-.1-1.2-.1-3.2,0-5.8,2.6-5.8,5.8s1,3.8,2.5,4.9h-17.9c-1.8,0-3.3-1.5-3.3-3.3s1.5-3.3,3.3-3.3Z"/>
  </g>
  <line class="cls-2" x1="4.5" y1="77.7" x2="-17" y2="77.7"/>
</svg>