<?xml version="1.0" encoding="UTF-8"?>
<svg id="Layer_1" data-name="Layer 1" xmlns="http://www.w3.org/2000/svg" version="1.1" viewBox="0 0 100 100">
  <defs>
    <style>
      .cls-1 {
        fill: #b3b3b3;
        stroke-width: 0px;
      }
    </style>
  </defs>
  <path class="cls-1" d="M93.6,50l-42.1-23.8c-.5-.3-1.2-.3-1.8,0L7.6,50c-.7.4-.9,1.2-.4,1.8.5.6,1.5.7,2.2.3l41.2-23.3,41.2,23.3c.3.2.6.2.9.2.5,0,1-.2,1.3-.6.5-.6.3-1.4-.4-1.8Z"/>
  <path class="cls-1" d="M40.7,59.5h-13c-.9,0-1.6.6-1.6,1.3v10.7c0,.7.7,1.3,1.6,1.3h13c.9,0,1.6-.6,1.6-1.3v-10.7c0-.7-.7-1.3-1.6-1.3ZM39.2,70.3h-9.8v-8.1h9.8v8.1Z"/>
  <path class="cls-1" d="M69,59.6h-15.9c-1.1,0-1.9,1.5-1.9,3.5v28.4c0,1.9.9,3.5,1.9,3.5h15.9c1.1,0,1.9-1.5,1.9-3.5v-28.4c0-1.9-.9-3.5-1.9-3.5ZM68,92.2h-13.8v-29.9h13.8v29.9Z"/>
  <path class="cls-1" d="M91.9,92.3h-6.1v-40.6c0-.4-.3-.9-.7-1.1l-33.7-18.1c-.5-.3-1.2-.3-1.7,0l-33.7,18.1c-.4.2-.7.7-.7,1.1v40.6h-6.1c-.9,0-1.6.6-1.6,1.3s.7,1.3,1.6,1.3h82.7c.9,0,1.6-.6,1.6-1.3s-.7-1.3-1.6-1.3ZM18.5,92.3v-39.9l32.1-17.2,32.1,17.2v39.9H18.5Z"/>
  <path class="cls-1" d="M33.5,52.3h1.5c.9,0,1.6-.6,1.6-1.3s-.7-1.3-1.6-1.3h-1.5c-.9,0-1.6.6-1.6,1.3s.7,1.3,1.6,1.3Z"/>
  <path class="cls-1" d="M78.1,75.2h-3.7c-.9,0-1.6.6-1.6,1.3s.7,1.3,1.6,1.3h3.7c.9,0,1.6-.6,1.6-1.3s-.7-1.3-1.6-1.3Z"/>
  <path class="cls-1" d="M26.4,87.4h-2.1c-.9,0-1.6.6-1.6,1.3s.7,1.3,1.6,1.3h2.1c.9,0,1.6-.6,1.6-1.3s-.7-1.3-1.6-1.3Z"/>
</svg>