<?xml version="1.0" encoding="UTF-8"?>
<svg id="Layer_2" data-name="Layer 2" xmlns="http://www.w3.org/2000/svg" version="1.1" viewBox="0 0 250 80">
  <defs>
    <style>
      .cls-1 {
        fill: #b3b3b3;
        stroke-width: 0px;
      }
    </style>
  </defs>
  <path class="cls-1" d="M543.3,78.3h-7.8V21.7c0-.5-.4-.9-.9-.9h-39.9c-.5,0-.9.4-.9.9v15.9h-23.6c-.5,0-.9.4-.9.9v32.1h-9.4V31.9c0-.5-.4-.9-.9-.9h-3V10.5c0-.5-.4-.9-.9-.9h-2.3V-.5c0-.5-.4-.9-.9-.9h-5.4v-7.6c0-.5-.4-.9-.9-.9s-.9.4-.9.9V-1.4h-5.4c-.5,0-.9.4-.9.9v10.2h-2.3c-.5,0-.9.4-.9.9v20.5h-3.2c-.5,0-.9.4-.9.9v42h-7.6v-35.8c0-.5-.4-.9-.9-.9h-10.4v-15.1c0-.5-.4-.9-.9-.9s-.9.4-.9.9v15.1h-10c-.5,0-.9.4-.9.9v35.8h-7.4V24.2c0-.5-.4-.9-.9-.9h-11.2v-12.6c0-.5-.4-.9-.9-.9s-.9.4-.9.9v12.6h-11.4c-.5,0-.9.4-.9.9v46.6h-15.9V21.7c0-.3-.2-.6-.4-.7l-25.1-15.6c-.3-.2-.6-.2-.9,0-.3.2-.4.4-.4.8v29.8l-8.9-4.8c-.3-.1-.6-.1-.9,0-.3.2-.4.4-.4.7v20.7s0,0,0,0v25.6h-8.4l-5.4-50c3.6-2,5.9-5.8,5.9-10,0-5.9-4.6-10.8-10.4-11.3V-4.1c0-.5-.4-.9-.9-.9s-.9.4-.9.9V7.1c-5.8.4-10.4,5.3-10.4,11.3s2.5,8.3,6.5,10.2l-3.8,49.7h-8.2V24.5c0-.5-.4-.9-.9-.9h-9.8v-11.1c0-.5-.4-.9-.9-.9s-.9.4-.9.9v11.1h-9.8c-.5,0-.9.4-.9.9v48h-7.1v-36.1c0-.5-.4-.9-.9-.9h-9.8v-10.4c0-.5-.4-.9-.9-.9s-.9.4-.9.9v10.4h-9.8c-.5,0-.9.4-.9.9v38h-10.3v-39.2c0-.5-.4-.9-.9-.9h-20v-16.4c0-.5-.4-.9-.9-.9h-4.2v-5.2c0-.5-.4-.9-.9-.9h-7.6V0c0-.5-.4-.9-.9-.9s-.9.4-.9.9v11.1h-7.6c-.5,0-.9.4-.9.9v5.2h-3.3c-.5,0-.9.4-.9.9v11h-4.6v-7c0-.5-.4-.9-.9-.9s-.9.4-.9.9v7h-5.4c-.5,0-.9.4-.9.9v7.4h-2.3c-.5,0-.9.4-.9.9v36.3h-10V.9c0-.3-.2-.6-.4-.7-.3-.2-.6-.2-.8,0l-27.4,13.9c-.3.1-.5.4-.5.8v8.8l-11.8-6.4c-.3-.1-.6-.1-.9,0-.3.2-.4.4-.4.7v57h-7.9v-39.7c0-.3-.2-.6-.4-.8-.3-.2-.6-.2-.9,0l-19,11c-.3.2-.4.4-.4.8v28.6h-7.4V25.6c0-.5-.4-.9-.9-.9h-13.5V5c0-.5-.4-.9-.9-.9h-27.4c-.5,0-.9.4-.9.9v35.8H3.2c-.5,0-.9.4-.9.9v36.6H-1.4v-21.4c0-.3-.1-.5-.3-.7l-11.8-9.4c-.3-.2-.8-.3-1.1,0l-12.2,9.4c-.2.2-.3.4-.3.7v21.4h-10.4c-.5,0-.9.4-.9.9s.4.9.9.9h11.3c.5,0,.9-.4.9-.9v-21.9l11.4-8.7,10.9,8.7v21.9c0,.5.4.9.9.9H3.2c.5,0,.9-.4.9-.9v-36.6h19.1v31c0,.5.4.9.9.9h11.3c.5,0,.9-.4.9-.9v-8.7h12c.5,0,.9-.4.9-.9s-.4-.9-.9-.9h-12v-7.9h12c.5,0,.9-.4.9-.9s-.4-.9-.9-.9h-12v-7.9h12c.5,0,.9-.4.9-.9s-.4-.9-.9-.9h-12v-7.9h12c.5,0,.9-.4.9-.9s-.4-.9-.9-.9h-12v-7.9h23.2v49.3c0,.5.4.9.9.9h9.1c.5,0,.9-.4.9-.9v-29l17.2-10v10.9h-10.2c-.5,0-.9.4-.9.9s.4.9.9.9h10.2v5.2h-10.2c-.5,0-.9.4-.9.9s.4.9.9.9h10.2v5.2h-10.2c-.5,0-.9.4-.9.9s.4.9.9.9h10.2v5.2h-10.2c-.5,0-.9.4-.9.9s.4.9.9.9h10.2v5.5c0,.5.4.9.9.9h9.6c.5,0,.9-.4.9-.9v-7.6h11.2c.5,0,.9-.4.9-.9s-.4-.9-.9-.9h-11.2v-10h11.2c.5,0,.9-.4.9-.9s-.4-.9-.9-.9h-11.2v-10h11.2c.5,0,.9-.4.9-.9s-.4-.9-.9-.9h-11.2v-10h11.2c.5,0,.9-.4.9-.9s-.4-.9-.9-.9h-11.2v-11.7l18.7,10.1v45.8c0,.5.4.9.9.9h31.9c.5,0,.9-.4.9-.9v-36.3h14.1v36.3c0,.5.4.9.9.9h19c.5,0,.9-.4.9-.9v-39.2h26.3v39.2c0,.5.4.9.9.9h12c.5,0,.9-.4.9-.9v-3.6h19.6v1.7c0,.5.4.9.9.9h8.9c.5,0,.9-.4.9-.9v-14.6h19.6v20.3c0,.5.4.9.9.9h9.8c.5,0,.8-.4.9-.8l3.8-50.9c0-.4-.2-.7-.5-.8,0-.2-.2-.4-.4-.5-3.1-1.4-5.2-4.4-5.5-7.8h19.1c-.3,3.4-2.4,6.4-5.5,7.8-.4.2-.6.7-.4,1.2,0,0,0,0,0,0l5.5,51c0,.4.4.8.9.8h10.1c.5,0,.9-.4.9-.9v-25.2l7.5,3.2v21.9c0,.5.4.9.9.9s.9-.4.9-.9v-22.5c0-.3-.2-.7-.5-.8l-8.7-3.8v-8.1l14.5,6.8v28.4c0,.5.4.9.9.9s.9-.4.9-.9v-29c0-.3-.2-.6-.5-.8l-15.8-7.4v-8.7l20.6,11.1v34.7c0,.5.4.9.9.9s.9-.4.9-.9v-35.3c0-.3-.2-.6-.5-.8l-1.5-.8v-7.6c0-.3-.2-.6-.4-.8l-9.7-5.4v-8.6l15.5,8.8v42.1c0,.5.4.9.9.9s.9-.4.9-.9V28.2c0-.3-.2-.6-.4-.8l-16.8-9.6V7.7l23.4,14.5v49.5c0,.5.4.9.9.9h17.6c.5,0,.9-.4.9-.9V25.1h22.6v49.7c0,.5.4.9.9.9h9.2c.5,0,.9-.4.9-.9v-35.8h20.4v35.8c0,.5.4.9.9.9h9.4c.5,0,.9-.4.9-.9v-42h25.1v38.5c0,.5.4.9.9.9h11.2c.5,0,.9-.4.9-.9v-32.1h45.2v39.9c0,.5.4.9.9.9h26.1c.5,0,.9-.4.9-.9s-.4-.9-.9-.9ZM171.2,12.7h15.2v4.2h-15.2v-4.2ZM35.4,24.8c-.5,0-.9.4-.9.9v47.1h-9.5v-31c0-.5-.4-.9-.9-.9h-4.6V5.9h25.6v18.9h-9.7ZM118.8,28.2l-6.8-3.7v-9.2l25.7-13v11.9h-15c-.5,0-.9.4-.9.9s.4.9.9.9h15v8.3h-15c-.5,0-.9.4-.9.9s.4.9.9.9h15v8.3h-15c-.5,0-.9.4-.9.9s.4.9.9.9h15v8.3h-15c-.5,0-.9.4-.9.9s.4.9.9.9h15v8.3h-15c-.5,0-.9.4-.9.9s.4.9.9.9h15v8.3h-15c-.5,0-.9.4-.9.9s.4.9.9.9h15v8.1h-18.4V29c0-.3-.2-.6-.5-.8ZM154.4,37.2v-6.5h10.9v6.5h-10.9ZM185.1,22.5c-.5,0-.9.4-.9.9v51h-17.2V18.8h24.4v15.5h-5.5v-11c0-.5-.4-.9-.9-.9ZM245.6,51.8h-19.6v-7.4h19.6v7.4ZM226,53.5h19.6v7.4h-19.6v-7.4ZM245.6,37.3v5.3h-19.6v-5.3h19.6ZM226,70v-7.4h19.6v7.4h-19.6ZM275.9,39.9h-19.6v-6.8h19.6v6.8ZM256.2,41.7h19.6v6.8h-19.6v-6.8ZM275.9,25.4v5.9h-19.6v-5.9h19.6ZM256.2,57.1v-6.8h19.6v6.8h-19.6ZM294.4,8.8c5,0,9.1,3.8,9.5,8.7h-19.1c.4-4.9,4.5-8.7,9.5-8.7ZM333.9,35.3v6.1l-8.5-4.5v-6.3l8.5,4.7ZM440.4.3h10.9v9.3h-10.9V.3ZM443.5,31.1v-11.8h4.6v11.8h-4.6ZM449.8,31.1v-12.6c0-.5-.4-.9-.9-.9h-6.3c-.5,0-.9.4-.9.9v12.6h-4.6V11.4h17.2v19.7h-4.6ZM525.1,53.3h8.7v8.1h-8.7v-8.1ZM523.4,61.3h-5.3v-8.1h5.3v8.1ZM533.8,41.8h-8.7v-8.1h8.7v8.1ZM533.8,43.5v8.1h-8.7v-8.1h8.7ZM523.4,51.6h-5.3v-8.1h5.3v8.1ZM518.1,63.1h5.3v8.1h-5.3v-8.1ZM525.1,63.1h8.7v8.1h-8.7v-8.1ZM533.8,72.9v5.4h-8.7v-5.4h8.7ZM533.8,32h-8.7v-9.4h8.7v9.4ZM505.3,32v-9.4h8.2v9.4h-8.2ZM513.5,33.7v3.8h-8.2v-3.8h8.2ZM515.2,22.5h8.2v9.4h-8.2v-9.4ZM503.6,22.5v9.4h-8v-9.4h8ZM495.6,33.7h8v3.8h-8v-3.8ZM515.2,37.5v-3.8h8.2v8.1h-5.3v-3.3c0-.5-.4-.9-.9-.9h-2ZM518.1,72.9h5.3v5.4h-5.3v-5.4Z"/>
  <path class="cls-1" d="M10.5,46.5c-.5,0-.9.4-.9.9v4.1c0,.5.4.9.9.9s.9-.4.9-.9v-4.1c0-.5-.4-.9-.9-.9Z"/>
  <path class="cls-1" d="M17.6,46.5c-.5,0-.9.4-.9.9v4.1c0,.5.4.9.9.9s.9-.4.9-.9v-4.1c0-.5-.4-.9-.9-.9Z"/>
  <path class="cls-1" d="M10.5,55.5c-.5,0-.9.4-.9.9v4.1c0,.5.4.9.9.9s.9-.4.9-.9v-4.1c0-.5-.4-.9-.9-.9Z"/>
  <path class="cls-1" d="M17.6,55.5c-.5,0-.9.4-.9.9v4.1c0,.5.4.9.9.9s.9-.4.9-.9v-4.1c0-.5-.4-.9-.9-.9Z"/>
  <path class="cls-1" d="M10.5,64.4c-.5,0-.9.4-.9.9v4.1c0,.5.4.9.9.9s.9-.4.9-.9v-4.1c0-.5-.4-.9-.9-.9Z"/>
  <path class="cls-1" d="M17.6,64.4c-.5,0-.9.4-.9.9v4.1c0,.5.4.9.9.9s.9-.4.9-.9v-4.1c0-.5-.4-.9-.9-.9Z"/>
  <path class="cls-1" d="M26.9,11c-.5,0-.9.4-.9.9v4.7c0,.5.4.9.9.9s.9-.4.9-.9v-4.7c0-.5-.4-.9-.9-.9Z"/>
  <path class="cls-1" d="M37.1,11c-.5,0-.9.4-.9.9v4.7c0,.5.4.9.9.9s.9-.4.9-.9v-4.7c0-.5-.4-.9-.9-.9Z"/>
  <path class="cls-1" d="M26.9,22.5c-.5,0-.9.4-.9.9v4.7c0,.5.4.9.9.9s.9-.4.9-.9v-4.7c0-.5-.4-.9-.9-.9Z"/>
  <path class="cls-1" d="M26.9,34c-.5,0-.9.4-.9.9v4.7c0,.5.4.9.9.9s.9-.4.9-.9v-4.7c0-.5-.4-.9-.9-.9Z"/>
  <path class="cls-1" d="M156.6,42.5c-.5,0-.9.4-.9.9v24.6c0,.5.4.9.9.9s.9-.4.9-.9v-24.6c0-.5-.4-.9-.9-.9Z"/>
  <path class="cls-1" d="M173.7,22.5c-.5,0-.9.4-.9.9v40.6c0,.5.4.9.9.9s.9-.4.9-.9V23.4c0-.5-.4-.9-.9-.9Z"/>
  <path class="cls-1" d="M191.5,40.8c-.5,0-.9.4-.9.9v3.6c0,.5.4.9.9.9s.9-.4.9-.9v-3.6c0-.5-.4-.9-.9-.9Z"/>
  <path class="cls-1" d="M196.6,40.8c-.5,0-.9.4-.9.9v3.6c0,.5.4.9.9.9s.9-.4.9-.9v-3.6c0-.5-.4-.9-.9-.9Z"/>
  <path class="cls-1" d="M201.6,40.8c-.5,0-.9.4-.9.9v3.6c0,.5.4.9.9.9s.9-.4.9-.9v-3.6c0-.5-.4-.9-.9-.9Z"/>
  <path class="cls-1" d="M206.7,40.8c-.5,0-.9.4-.9.9v3.6c0,.5.4.9.9.9s.9-.4.9-.9v-3.6c0-.5-.4-.9-.9-.9Z"/>
  <path class="cls-1" d="M191.5,51.8c-.5,0-.9.4-.9.9v3.6c0,.5.4.9.9.9s.9-.4.9-.9v-3.6c0-.5-.4-.9-.9-.9Z"/>
  <path class="cls-1" d="M196.6,51.8c-.5,0-.9.4-.9.9v3.6c0,.5.4.9.9.9s.9-.4.9-.9v-3.6c0-.5-.4-.9-.9-.9Z"/>
  <path class="cls-1" d="M201.6,51.8c-.5,0-.9.4-.9.9v3.6c0,.5.4.9.9.9s.9-.4.9-.9v-3.6c0-.5-.4-.9-.9-.9Z"/>
  <path class="cls-1" d="M206.7,51.8c-.5,0-.9.4-.9.9v3.6c0,.5.4.9.9.9s.9-.4.9-.9v-3.6c0-.5-.4-.9-.9-.9Z"/>
  <path class="cls-1" d="M191.5,62.7c-.5,0-.9.4-.9.9v3.6c0,.5.4.9.9.9s.9-.4.9-.9v-3.6c0-.5-.4-.9-.9-.9Z"/>
  <path class="cls-1" d="M196.6,62.7c-.5,0-.9.4-.9.9v3.6c0,.5.4.9.9.9s.9-.4.9-.9v-3.6c0-.5-.4-.9-.9-.9Z"/>
  <path class="cls-1" d="M201.6,62.7c-.5,0-.9.4-.9.9v3.6c0,.5.4.9.9.9s.9-.4.9-.9v-3.6c0-.5-.4-.9-.9-.9Z"/>
  <path class="cls-1" d="M206.7,62.7c-.5,0-.9.4-.9.9v3.6c0,.5.4.9.9.9s.9-.4.9-.9v-3.6c0-.5-.4-.9-.9-.9Z"/>
</svg>