<?xml version="1.0" encoding="UTF-8"?>
<svg id="Layer_1" data-name="Layer 1" xmlns="http://www.w3.org/2000/svg" version="1.1" viewBox="0 0 100 100">
  <defs>
    <style>
      .cls-1 {
        fill: #b3b3b3;
        stroke-width: 0px;
      }
    </style>
  </defs>
  <path class="cls-1" d="M95.5,91h-4.3v-39.7c1.7-.2,3.2-1.5,3.9-3.5,1-2.9-.1-6.3-2.6-7.5l-34-16.7v-5.7c1.2-.7,2.1-1.9,2.6-3.4.6-1.6.6-3.5,0-5.1-.9-2.5-3-4.1-5.3-4.1s-1.5.2-2.2.5L8,28.3c-1.4.7-2.5,2-3.1,3.6-.6,1.6-.6,3.5,0,5.1.8,2.3,2.7,3.9,4.9,4.1v49.9h-5.4c-.8,0-1.5.8-1.5,1.8s.7,1.8,1.5,1.8h91.1c.8,0,1.5-.8,1.5-1.8s-.7-1.8-1.5-1.8ZM91.3,43.6c.5.2.8.7,1,1.2.2.5.2,1.1,0,1.7-.3.8-1,1.4-1.7,1.4s-.3,0-.5,0c0,0-.2,0-.2,0l-31.4-15.4v-4.8l32.9,16.1ZM7.7,35.7c-.3-.8-.3-1.6,0-2.4.3-.8.8-1.4,1.5-1.7L54.8,9.2c.3-.2.7-.2,1-.2,1.1,0,2.1.8,2.5,1.9.3.8.3,1.6,0,2.4-.3.8-.8,1.4-1.5,1.7l-21.1,10.3-24.6,12c0,0-.2,0-.3.1-.2,0-.5.1-.7.1-1.1,0-2.1-.8-2.5-1.9ZM12.8,40.4l42.6-20.8v71.5h-12.4v-20.6c0-1-.7-1.8-1.5-1.8h-14.9c-.8,0-1.5.8-1.5,1.8v20.6h-12.4v-50.7ZM28.2,91v-18.8h11.9v18.8h-11.9ZM68.3,91v-16.1h10.1v16.1h-10.1ZM81.4,91v-17.8c0-1-.7-1.8-1.5-1.8h-13.1c-.8,0-1.5.8-1.5,1.8v17.8h-6.8v-54.9l10.3,5,19.4,9.5v40.4h-6.8Z"/>
  <path class="cls-1" d="M22.7,49.3h8.1c.8,0,1.5-.8,1.5-1.8v-8.2c0-1-.7-1.8-1.5-1.8h-8.1c-.8,0-1.5.8-1.5,1.8v8.2c0,1,.7,1.8,1.5,1.8ZM24.2,41.1h5v4.7h-5v-4.7Z"/>
  <path class="cls-1" d="M37.5,49.3h8.1c.8,0,1.5-.8,1.5-1.8v-8.2c0-1-.7-1.8-1.5-1.8h-8.1c-.8,0-1.5.8-1.5,1.8v8.2c0,1,.7,1.8,1.5,1.8ZM39.1,41.1h5v4.7h-5v-4.7Z"/>
  <path class="cls-1" d="M30.7,64c.8,0,1.5-.8,1.5-1.8v-8.2c0-1-.7-1.8-1.5-1.8h-8.1c-.8,0-1.5.8-1.5,1.8v8.2c0,1,.7,1.8,1.5,1.8h8.1ZM24.2,55.7h5v4.7h-5v-4.7Z"/>
  <path class="cls-1" d="M37.5,64h8.1c.8,0,1.5-.8,1.5-1.8v-8.2c0-1-.7-1.8-1.5-1.8h-8.1c-.8,0-1.5.8-1.5,1.8v8.2c0,1,.7,1.8,1.5,1.8ZM39.1,55.7h5v4.7h-5v-4.7Z"/>
  <path class="cls-1" d="M70.3,49.9h-7.1c-.8,0-1.5.8-1.5,1.8v13.7c0,1,.7,1.8,1.5,1.8h7.1c.8,0,1.5-.8,1.5-1.8v-13.7c0-1-.7-1.8-1.5-1.8ZM68.8,63.6h-4.1v-10.2h4.1v10.2Z"/>
  <path class="cls-1" d="M83.4,49.9h-7.1c-.8,0-1.5.8-1.5,1.8v13.7c0,1,.7,1.8,1.5,1.8h7.1c.8,0,1.5-.8,1.5-1.8v-13.7c0-1-.7-1.8-1.5-1.8ZM81.9,63.6h-4.1v-10.2h4.1v10.2Z"/>
</svg>