<?xml version="1.0" encoding="UTF-8"?>
<svg id="Layer_1" data-name="Layer 1" xmlns="http://www.w3.org/2000/svg" version="1.1" viewBox="0 0 100 100">
  <defs>
    <style>
      .cls-1 {
        fill: #b3b3b3;
        stroke-width: 0px;
      }
    </style>
  </defs>
  <g id="uMKYhO.tif">
    <path class="cls-1" d="M88.2,25.3c4.7.6,10,5.4,6.6,11.7-1.3,2.4-3.3,4.1-5.8,5.1-.8.3-1.2.6-.5,1.4,4,5.4,3.9,11.1,1,16.9-.8,1.6-1.2,3.3-1.2,5,0,2.3.7,4.3,2.6,5.8.7.6,1.1,1.3,1.2,2.2.5,4.6-.2,9.1-1.7,13.4-.2.7-.6,1.3-.9,2-.6,1.3-1.6,1.9-3.1,1.8-1.4-.1-2.8,0-4.1,0-1.6,0-2.2-.9-1.7-2.4.5-1.6,1.8-2.1,3.2-2.1,1.1,0,1.5-.5,1.7-1.5.3-1.6.5-3.2.4-4.8,0-1.7-.8-3-2.3-3.9-1.4-.8-2.7-1.7-4-2.6-3.3-2.3-5.5-5.4-6.7-9.2-.8-2.4-2.1-3.4-4.6-3.6-2.5-.2-4.9.3-7.3,1.3-3.4,1.3-6.5,3-9.8,4.5-3,1.4-6.1,2.5-9.5,2.5-.9,0-1.3.4-1.3,1.4-.2,4.2-.5,8.4-.8,12.5-.1,2-.3,4-.6,6-.2,1.7-.8,2.2-2.4,2.1-2.1,0-4.2-.1-6.3-.2-1,0-2,0-2.2-1.3-.2-1.3.5-2.6,1.7-3,.6-.2,1.2-.2,1.8-.3.6-.1,1.2-.4,1.2-1.1.5-5,.5-9.9-1.1-14.7-.8-2.4-2.1-4.4-3.9-6.1-4.1-3.8-5.5-8.6-5.7-13.9-.2-3.4.3-6.8.8-10.2.7-4.5-1-7.9-5-10.1-2.7-1.5-5.6-2-8.6-2.3-2.4-.2-4.1-1.4-4.9-3.8-.5-1.5-.1-2.6,1-3.6,1.3-1.1,2.9-1.8,4.6-2.2,1.6-.4,2.7-1.3,3.4-2.8.1-.3.3-.6.5-.8,2.9-6,8.8-6.4,13.8-4.7,1.5.5,2.6,1.5,3.5,2.8,1.3,2.2,1.9,4.7,2.1,7.2.1,1.6-.6,3-2.2,3.7-1.7.8-3.4.5-4.8-.5-1-.7-.9-1.8-.7-2.8.2-1.5.3-2.9-.2-4.4-.1-.4-.3-.8-.5-1.1-.2-.4-.6-.6-1-.5-.5.1-.7.6-.5,1,.8,2.1.3,4.3.4,6.4,0,2.7,3.3,4.7,6.4,4.1,1.5-.3,2.9-1,3.9-2.2.3-.4.6-.8,1,0,1.7,2.9,4.5,4.7,7.4,6.2,7.2,3.9,14.8,6.1,23,6.1,4.6,0,9.2-.3,13.8.8,1.2.3,2.4.6,3.6,1.1,1.1.5,2,.5,3,0,1.3-.5,2.5-1.1,3.6-1.9,2.7-2,3.2-4.8,1.3-7.6-.7-1-1.5-1.9-2.4-2.9Z"/>
  </g>
</svg>