<?xml version="1.0" encoding="UTF-8"?>
<svg id="Layer_1" data-name="Layer 1" xmlns="http://www.w3.org/2000/svg" version="1.1" viewBox="0 0 100 100">
  <defs>
    <style>
      .cls-1 {
        fill: #b3b3b3;
        stroke-width: 0px;
      }
    </style>
  </defs>
  <g id="iMJt4t.tif">
    <path class="cls-1" d="M59.2,59.3c3.8-.1,9,.3,14.1,1.8,1.7.5,3.3,1.2,4.8,2.2,4.8,3.4,6.4,10.1.6,14.7-3.1,2.4-6.7,3.8-10.5,4.9-6.3,1.8-12.8,2.6-19.3,2.4-9-.4-17.1-3-23.8-9.3-3.5-3.3-6.5-7-7.2-12-.7-5,.6-9.4,4.8-12.6,2.7-2.1,5.7-3.8,8.8-5.3,2.3-1.1,4.5-2.3,6.6-3.8,3.9-3,5.3-6.9,4.6-11.7-.3-1.9-.9-3.8-1.6-5.6-.3-.7-.7-.9-1.4-.9-3.3-.2-6.5-.4-9.6-1.5-.7-.2-1.3-.5-1.9-.9-1.2-.8-1.4-1.7-.3-2.8,2.4-2.4,5.4-3.7,8.7-4.1,2.5-.3,4.8.2,6.9,1.6,1.1.8,1.9,1.8,2.6,2.9,2.2,4.1,3.5,8.5,3.8,13.1.4,6.3-2.2,11.2-7.2,15-2.9,2.2-6.2,3.9-9.5,5.5-2,.9-3.9,1.9-5.6,3.3-3.2,2.5-3.9,5.3-2.1,9,2.1,4.3,5.4,7.4,9.6,9.6,4.6,2.5,9.5,3.7,14.7,3.8,6.9.1,13.6-.7,20-3.3,1.6-.7,3.1-1.5,4.6-2.5,2.2-1.6,2.5-4,.7-6.1-1.9-2.1-4.4-3.2-7.1-4.1-3.8-1.3-7.7-1.6-11.7-1.7-3.2-.1-6.4-.2-9.6-.3-.5,0-1.4.1-1.4-.4,0-.6.8-.5,1.4-.5,3.7-.4,7.4-.3,12.6-.4Z"/>
  </g>
</svg>