<?xml version="1.0" encoding="UTF-8"?>
<svg id="Layer_1" data-name="Layer 1" xmlns="http://www.w3.org/2000/svg" version="1.1" viewBox="0 0 100 100">
  <defs>
    <style>
      .cls-1 {
        fill: #b3b3b3;
        stroke-width: 0px;
      }
    </style>
  </defs>
  <g id="bAcYTu.tif">
    <path class="cls-1" d="M66.4,54.3c-1.8-.4-3.3.4-4.6,1.3-4.5,2.8-6.5,7.2-7,12.3-.3,2.7,0,5.5,1,8.1.5,1.4.4,2.3-1.2,3-1.6.7-2.8,1.9-3.6,3.5-.4.7-.8,1.3-1.8,1.1-4.4-.9-8.5.1-12.7,1.3-4.5,1.3-9.1,1.8-13.7,2.3-2.3.2-4.4.7-6.7,0-2.7-.8-3.8-3-2.1-5.4,1.5-2.1,3.9-2.6,6.1-3.2,1.4-.4,2.8-.7,4.2-1.3.9-.3,1.6-.8,2.1-1.6.5-.7.7-1.6.1-2.3-.6-.8-1.4-.4-2.1,0-2.9,1.4-5.9,2.4-9.1,1.1-1.2-.5-2.4-1-3.3-1.9-1.2-1.2-2.3-2.3-3.8-3.1-1.6-.9-1.7-2.8-.8-4,2.5-3.6,3-8.1,5.6-11.7,2.8-3.9,6-7.1,10.7-8.5,2.4-.7,2.8-2.3,3.2-4.4,2.1-10.6,6.1-20.1,15.2-26.6,1.6-1.1,3.3-1.9,5.2-2.3,1.5-.4,2.3.2,2.6,1.7,1.1,5.6.2,10.8-2.4,15.9-2.3,4.4-5.8,7.5-9.5,10.6-1.7,1.4-3.2,2.9-4.5,4.6-.8,1-.6,1.5.7,1.8,2.8.8,5.3,0,7.6-1.5,5.8-3.9,12.1-6.8,18.9-8.3,7.6-1.6,14.8-.3,21.2,4.4,1,.8,1.7.8,2.8.2,2.4-1.4,5.6-.7,7.3,1.4,2,2.5,1.9,5.3-.3,7.6-.9,1-1.1,1.7-.7,3.1,2.7,8.4,2.7,16.8-1.7,24.7-2.7,4.9-7,7.5-12.5,8.4-6.2,1-12.5,1.4-18.8,1.2-1.6,0-3.1-.4-4.6-1-2-.8-2.4-2.3-1.4-4.2.9-1.6,2.2-2.8,4-3.3,1.8-.5,2-1.2,1.2-3-2.5-5.9-1.9-14.7,4-19.4,1.6-1.3,3.6-1.8,5.3-2.9Z"/>
  </g>
</svg>